<svg width="300" height="48" viewBox="0 0 300 48" fill="none" xmlns="http://www.w3.org/2000/svg">
<rect width="47.3647" height="47.3647" rx="10.9303" fill="white"/>
<path d="M22.3279 36.4029C22.3281 36.403 22.3283 36.4028 22.3283 36.4026C22.1651 35.2784 22.0234 34.151 21.8355 33.0306C21.2036 29.2655 20.2408 25.5842 18.9231 21.9971C18.0357 19.5814 16.9929 17.2379 15.5886 15.0678C14.6291 13.585 13.5369 12.2162 12.0475 11.2118C11.3148 10.7179 10.5282 10.335 9.63559 10.2383C8.35358 10.0997 7.33291 10.5336 6.59828 11.6192C5.94167 12.5908 5.64522 13.6797 5.45929 14.8092C4.88524 18.3023 5.2233 21.7437 6.11005 25.1452C7.15673 29.1598 8.85416 32.8714 11.4403 36.1529C12.8257 37.9104 14.4197 39.4448 16.4156 40.5228C17.5338 41.1269 18.7196 41.5246 20.0016 41.5369C21.8824 41.5543 23.3932 40.7755 24.5602 39.332C25.7219 37.8949 26.3382 36.2129 26.6256 34.4245C26.8167 33.2311 26.8557 32.0133 26.9597 30.8064C26.9617 30.7834 26.9629 30.7603 26.9636 30.7364C26.9673 30.6104 27.1213 30.5462 27.2002 30.6446C28.3243 32.0436 29.6089 33.2518 31.2108 34.1137C34.9918 36.1491 38.6721 34.1137 40.2336 31.5433C40.9975 30.2861 41.3817 28.9096 41.5254 27.4636C41.8414 24.2826 41.2413 21.2189 40.2642 18.212C39.5016 15.8646 38.52 13.6114 37.1229 11.5573C36.8246 11.1186 36.4743 10.7152 36.1449 10.2974C36.1237 10.2705 36.086 10.2628 36.0561 10.2797C36.0347 10.2918 36.0216 10.3147 36.0216 10.3393V30.8168C36.0216 30.8343 36.0083 30.8489 35.9909 30.8505C35.9728 30.8521 35.9566 30.8392 35.9542 30.8212C35.8846 30.2949 35.8255 29.7674 35.7427 29.243C35.0308 24.7152 33.8489 20.3241 31.831 16.1818C31.1126 14.7067 30.2564 13.3155 29.1181 12.1124C28.4361 11.3923 27.6709 10.7863 26.7263 10.4356C25.2928 9.90367 23.9725 10.2576 23.2034 11.7985C22.6989 12.8094 22.5286 13.9021 22.4362 15.0046C22.3693 15.806 22.3634 16.6138 22.3628 17.419C22.3576 23.6076 22.3595 29.7968 22.3595 35.9853V36.3963C22.3595 36.3997 22.3568 36.4024 22.3534 36.4024C22.3449 36.4024 22.3366 36.4024 22.328 36.4024C22.3278 36.4024 22.3277 36.4028 22.3279 36.4029Z" fill="url(#paint0_linear_6368_1816)"/>
<path d="M105.367 10.9497C107.069 10.9497 108.585 11.2418 109.914 11.8247C111.266 12.4076 112.327 13.2702 113.097 14.4126C113.866 15.5552 114.251 16.9898 114.251 18.7153V19.9741H110.509V18.7153C110.509 17.666 110.287 16.8145 109.844 16.1616C109.424 15.509 108.83 15.0311 108.061 14.728C107.291 14.4249 106.393 14.273 105.367 14.2729C103.875 14.2729 102.709 14.5877 101.869 15.2173C101.053 15.8236 100.645 16.6751 100.645 17.771C100.645 18.517 100.82 19.1349 101.17 19.6245C101.543 20.0908 102.079 20.4757 102.778 20.7788C103.478 21.0819 104.352 21.3503 105.401 21.5835L106.696 21.8979C108.282 22.2477 109.681 22.7026 110.894 23.2622C112.106 23.7985 113.062 24.5327 113.762 25.4653C114.461 26.398 114.81 27.599 114.811 29.0679C114.811 30.5368 114.438 31.8196 113.691 32.9155C112.969 34.0115 111.931 34.8748 110.578 35.5044C109.226 36.1106 107.628 36.4136 105.786 36.4136C103.944 36.4135 102.312 36.0869 100.89 35.4341C99.4673 34.7812 98.3483 33.825 97.5322 32.5659C96.7394 31.2834 96.3428 29.7324 96.3428 27.9136V27.0396H100.085V27.9136C100.085 29.639 100.598 30.9336 101.624 31.7964C102.673 32.6591 104.061 33.0903 105.786 33.0903C107.535 33.0903 108.853 32.7292 109.739 32.0063C110.625 31.2602 111.068 30.304 111.068 29.1382C111.068 28.3687 110.858 27.7392 110.438 27.2495C110.019 26.7598 109.424 26.375 108.654 26.0952C107.885 25.7921 106.964 25.5118 105.892 25.2554L104.598 24.9409C103.035 24.5678 101.671 24.113 100.505 23.5767C99.3624 23.0171 98.4762 22.2828 97.8467 21.3735C97.2171 20.4641 96.9023 19.2979 96.9023 17.8755C96.9024 16.4299 97.2527 15.1944 97.9521 14.1685C98.675 13.1425 99.6656 12.3492 100.925 11.7896C102.184 11.2299 103.665 10.9497 105.367 10.9497ZM226.898 10.9497C229.906 10.9497 232.296 11.8014 234.068 13.5034C235.864 15.1823 236.762 17.6194 236.762 20.814V26.5503C236.762 29.7447 235.864 32.1929 234.068 33.895C232.296 35.5738 229.906 36.4136 226.898 36.4136C223.891 36.4136 221.501 35.5738 219.729 33.895C217.956 32.1929 217.07 29.7447 217.07 26.5503V20.814C217.07 17.6194 217.956 15.1823 219.729 13.5034C221.501 11.8013 223.891 10.9497 226.898 10.9497ZM290.557 10.9497C292.259 10.9497 293.774 11.2418 295.104 11.8247C296.456 12.4076 297.517 13.2702 298.286 14.4126C299.056 15.5552 299.44 16.9898 299.44 18.7153V19.9741H295.698V18.7153C295.698 17.666 295.476 16.8145 295.033 16.1616C294.614 15.5089 294.019 15.0311 293.25 14.728C292.481 14.4249 291.583 14.273 290.557 14.2729C289.064 14.2729 287.898 14.5877 287.059 15.2173C286.242 15.8236 285.834 16.6751 285.834 17.771C285.834 18.517 286.01 19.1349 286.359 19.6245C286.732 20.0908 287.268 20.4757 287.968 20.7788C288.667 21.0819 289.542 21.3503 290.592 21.5835L291.886 21.8979C293.471 22.2477 294.871 22.7026 296.083 23.2622C297.295 23.7985 298.252 24.5327 298.951 25.4653C299.651 26.398 300 27.599 300 29.0679C300 30.5368 299.627 31.8196 298.881 32.9155C298.158 34.0115 297.12 34.8748 295.768 35.5044C294.415 36.1105 292.818 36.4136 290.976 36.4136C289.134 36.4135 287.501 36.0869 286.079 35.4341C284.657 34.7812 283.538 33.825 282.722 32.5659C281.929 31.2834 281.532 29.7324 281.532 27.9136V27.0396H285.274V27.9136C285.274 29.639 285.788 30.9336 286.813 31.7964C287.863 32.6591 289.25 33.0903 290.976 33.0903C292.724 33.0903 294.043 32.7292 294.929 32.0063C295.815 31.2602 296.258 30.304 296.258 29.1382C296.258 28.3687 296.048 27.7392 295.628 27.2495C295.208 26.7598 294.613 26.375 293.844 26.0952C293.074 25.7921 292.154 25.5118 291.081 25.2554L289.787 24.9409C288.225 24.5678 286.86 24.113 285.694 23.5767C284.552 23.0171 283.666 22.2828 283.036 21.3735C282.407 20.4641 282.092 19.2979 282.092 17.8755C282.092 16.4299 282.442 15.1944 283.142 14.1685C283.864 13.1425 284.855 12.3492 286.114 11.7896C287.373 11.2299 288.854 10.9497 290.557 10.9497ZM64.2822 33.3706H64.8418L68.6191 11.4399H75.2295L79.0068 33.3706H79.5674L82.4697 11.4399H86.2471L82.6445 35.9233H76.0342L72.1865 13.6782H71.627L67.8145 35.9233H61.1689L57.5664 11.4399H61.3438L64.2822 33.3706ZM93.0586 35.9233H89.2803V11.4399H93.0586V35.9233ZM140.213 33.4058H140.772V11.4399H144.515V35.9233H137.24L130.595 13.9233H130.034V35.9233H126.292V11.4399H133.567L140.213 33.4058ZM164.347 14.8677H152.699V21.8979H163.367V25.3257H152.699V32.4956H164.521V35.9233H148.922V11.4399H164.347V14.8677ZM184.899 14.8677H177.379V35.9233H173.602V14.8677H166.081V11.4399H184.899V14.8677ZM192.939 33.3706H193.5L197.277 11.4399H203.888L207.665 33.3706H208.225L211.128 11.4399H214.905L211.303 35.9233H204.692L200.845 13.6782H200.285L196.473 35.9233H189.827L186.225 11.4399H190.002L192.939 33.3706ZM250.817 11.4399C252.333 11.4399 253.662 11.7083 254.805 12.2446C255.971 12.7576 256.868 13.5036 257.498 14.4829C258.151 15.4623 258.478 16.6285 258.478 17.981V18.3657C258.477 19.9044 258.104 21.1401 257.358 22.0728C256.636 22.9821 255.749 23.6235 254.7 23.9966V24.5562C255.586 24.6028 256.298 24.9057 256.834 25.4653C257.37 26.0016 257.638 26.7831 257.638 27.8091V35.9233H253.825V28.3335C253.825 27.704 253.662 27.2026 253.336 26.8296C253.009 26.4566 252.485 26.27 251.762 26.27H244.312V35.9233H240.534V22.8071H244.312V22.8423H250.397C251.75 22.8423 252.8 22.5039 253.546 21.8276C254.292 21.1281 254.665 20.1837 254.665 18.9946V18.7153C254.665 17.5261 254.292 16.5927 253.546 15.9165C252.823 15.2171 251.773 14.8677 250.397 14.8677H244.413V14.7915H240.534V11.4399H250.817ZM265.712 21.6187H266.271L275.4 11.4399H280.332L269.279 23.5073L280.717 35.9233H275.646L266.271 25.5356H265.712V35.9233H261.935V11.4399H265.712V21.6187ZM226.898 14.3433C225.01 14.3433 223.529 14.9146 222.456 16.0571C221.384 17.1763 220.848 18.715 220.848 20.6733V26.6899C220.848 28.6484 221.384 30.1988 222.456 31.3413C223.529 32.4606 225.01 33.021 226.898 33.021C228.834 33.021 230.327 32.4606 231.376 31.3413C232.425 30.1988 232.949 28.6483 232.949 26.6899V20.6733C232.949 18.7151 232.425 17.1763 231.376 16.0571C230.327 14.9145 228.834 14.3433 226.898 14.3433Z" fill="#DADAFF"/>
<defs>
<linearGradient id="paint0_linear_6368_1816" x1="23.393" y1="10.2036" x2="23.393" y2="41.5372" gradientUnits="userSpaceOnUse">
<stop stop-color="#654EF5"/>
<stop offset="1" stop-color="#281FEA"/>
</linearGradient>
</defs>
</svg>
